<svg xmlns="http://www.w3.org/2000/svg" xmlns:xlink="http://www.w3.org/1999/xlink" version="1.1" id="Layer_1" x="0px" y="0px" style="enable-background:new 0 0 1280 560;" xml:space="preserve" viewBox="532.2 1.1 514.5 557.54">
<style type="text/css">
	.st0{fill:#FFFFFF;}
</style>
<g>
	<polygon id="path-1" class="st0" points="1041.8,1.1 1026.1,1.1 1026.1,19.4 1041.8,19.4  "/>
</g>
<title>inky-tv-3</title>
<desc>Created with Sketch.</desc>
<g id="Page-1">
	<g id="Todd-Vanderlin---Desktop-3" transform="translate(-185.000000, -46.000000)">
		<g id="inky-tv-3" transform="translate(185.000000, 45.000000)">
			<path id="Fill-1" d="M553.7,388.2l-0.3,0.6l0.5,0.1L553.7,388.2z M1032.3,74c-0.3-0.4-0.4-0.9-0.8-1.1c-0.3-0.1-0.8,0.2-1.2,0.3     c0.2,0.4,0.3,1,0.6,1.1C1031.3,74.4,1031.8,74.1,1032.3,74L1032.3,74z M1034.1,89.2c0.1-0.8,0.3-1.5,0.3-2.1     c0-0.1-0.3-0.3-0.5-0.5c-0.3,0.5-0.7,1-0.8,1.6C1033.1,88.4,1033.7,88.7,1034.1,89.2L1034.1,89.2z M757.3,381.5     c-3.9,4.5-7.8,9-11.7,13.5c-0.3,0.3-0.1,0.9-0.2,1.3C750.8,394.9,755.3,390,757.3,381.5L757.3,381.5z M826.1,531.2     c-4.1-2.7-7.3-4.9-10.5-7c-0.7-0.5-1.7-0.6-2.7-0.9c-0.9,4-0.4,7.2,1.5,10.2s5.9,3.9,8.8,1.6     C824.2,534.2,824.9,532.8,826.1,531.2L826.1,531.2z M820.2,493c0.8-4-0.8-6.3-2.9-8.4c-2.4-2.3-4.9-4.5-9.1-4.6     c1.4,5.8,2.6,11.1,6.7,15.1C816.8,494.3,818.4,493.7,820.2,493L820.2,493z M645.5,333.5c-3.3-1.7-6.5-1.6-9.7,0.1     c-3.5,1.9-6.9,3.9-10.3,5.8c-2.6,1.5-4.8,3.5-5.7,6.3c-1.7,5.4-2.6,11-1.4,17.3c1.4-0.7,2.4-1,3.2-1.6     C628.5,356.6,641,341.9,645.5,333.5L645.5,333.5z M758.8,312.7c-5.7-5.8-10.8-11.2-14.6-17.5c-0.7-1.2-1.3-3-3.8-2.4     c-1,3.9-2,7.9-3.1,12.1c2,2.9,4,5.7,5.9,8.5c3.6,5.2,8,9.9,9.7,16.2c0.7,2.6,1.4,5.3,2.2,8.1c0.6-0.6,1.3-0.9,1.3-1.3     C757.3,328.3,758.1,320.2,758.8,312.7L758.8,312.7z M708.8,398.5c-7-8.7-16.1-12.3-24.6-16.9c-2.3-1.3-3.9-0.7-5.5,1.3     c-2.5,3-2.9,6.3-0.7,9.4c3.4,5,6.8,10,11.7,13.8c1.9,1.4,3.9,2.8,6,3.7c3.8,1.6,7.8,2.8,12.3,4.3     C708.2,408.4,708.5,403.3,708.8,398.5L708.8,398.5z M757.3,305.7c0.8-0.8,1.1-0.9,1.2-1.1c0.7-10.3,1.6-20.5,1.8-30.8     c0.1-4.4-1.1-8.9-2.2-13.2c-1-3.8-5.4-5.2-8.2-2.8c-2.4,2-4.5,4.5-5,7.8c-0.8,5.2-1.4,10.4-2,15.7c-0.2,2.1-0.5,4.1,0.6,6.2     C746.7,294.5,751,300.7,757.3,305.7L757.3,305.7z M806.4,473.6c4.6,2.8,8.5,4.9,12.2,7.4c5.3,3.6,6.2,8.8,4.5,14.7     c-0.7,2.5-1.6,5-2.5,7.6c3.2,4.7,6.6,9.1,12.8,11.8c1.1-6.5,3.2-12.3,2.3-18.4c-0.7-4.4-1.9-8.8-3.3-13     c-2.2-6.7-6.5-12.1-12.2-16.1c-4.5-3.2-9.5-5.2-15.3-5.2C804.1,466.8,805.4,470.2,806.4,473.6L806.4,473.6z M717.6,291.3     c1.4-2.4,2.4-3.9,3.1-5.6c3.1-7.4,4-15.2,5.3-23.1c1.2-7.3-2.4-11.4-7.8-14.8c-2.7-1.7-5.7-3-9-2.5c-3.8,0.6-5.2,1.8-5.3,5.6     C703.4,265.6,706.7,279.1,717.6,291.3L717.6,291.3z M614.2,365.6c0.2-4.9,0.4-9.9,0.8-14.9c0.5-6.6,3.6-11.4,9.5-14.4     c2.6-1.3,5.2-2.5,7.6-4.2c3.9-2.7,8.2-3.4,12.8-3c1.5,0.1,3,0.3,4.6,0.4c2.3-3.2,4.9-5.8,6-9.5c-4.8-3.7-10.1-5-15.8-4.2     c-12.5,1.6-23,7.2-31.3,16.8c-3,3.5-4.4,7.6-5.2,12.2c-1.4,7.7-0.7,15.2,0.3,22.8c0.1,1.2,0.9,2.3,1.5,3.6     C608.5,369.7,611.5,368.1,614.2,365.6L614.2,365.6z M734.1,417.6c1.2,0.1,1.9,0.3,2.7,0.2c5.2-0.4,9.5-2.9,14-5.2     c11.5-5.9,19.1-15.6,25-26.7c1-1.8,1.6-3.9,2-6c2.6-12.4,2.8-24.6-1.9-36.6c-0.3-0.8-1.1-1.3-1.6-1.9c-2.9,8.9-5.2,17.6-8.5,25.9     c-1.6,4.2-3.5,8.2-3.9,12.7c-0.6,5.5-3.2,9.9-7,13.9c-3.7,3.9-7.8,7-13,8.6c-1.4,0.4-3.1,1.2-3.8,2.4     C735.8,408.7,734.4,412.9,734.1,417.6L734.1,417.6z M620.2,384.9c-1.2,1.5-2.1,2.8-3,4c-2.9,3.7-2.9,7.6-1.1,11.8     c2.1,4.9,5.2,9.1,9,12.8c12.6,12.4,27.8,19.7,45,23.1c3.3,0.6,6.7,1.2,10.1,1.3c4.4,0.1,7.5-2.2,9.3-6.1c1.9-4-0.2-8.3-4.5-9     c-2.3-0.4-4.8-0.4-7,0c-6.5,1.3-12.5,0.5-18.5-2.2c-3.1-1.4-6.4-2.4-9.5-3.8c-2.6-1.2-5.1-2.7-7.4-4.4     C633.2,405.1,625.1,396.5,620.2,384.9L620.2,384.9z M677.6,321.6c2.6,1.3,5.3,1.1,7.6,0c6.3-3.1,13.6-4.2,18.8-9.6     c5-5.1,9.3-10.6,11.7-16.9c-2.3-3.5-4.6-6.4-6.4-9.6c-1.8-3.2-3.3-6.6-4.5-10.1s-1.9-7.1-2.8-10.7c-0.8-3.4-0.1-7.2-1.5-11.8     c-1.1,1.8-1.7,2.5-2,3.4c-3.3,8-5.4,16.4-7.4,24.9c-3.1,13.1-6.4,26-13,37.9C677.7,319.8,677.8,320.6,677.6,321.6L677.6,321.6z      M805.1,225.2c-3.1,4.7-2.8,9.3-1.2,13.9c3.1,9,6.4,17.9,9.6,26.8c1.9,5.2,3.2,10.6,3.7,16.1c0.6,6.3,1.3,12.6,1.8,18.9     c0.2,2.2,0.7,4,2.3,5.7c4.4,4.8,5.4,10.6,4.8,16.9c-0.4,3.7-0.6,7.4-0.4,11c0.3,6.6,0.4,13.2,1.5,19.7c1.3,7.8,3.5,15.4,8.4,22     c3,4,5.3,8.4,7.9,12.7c3.3,5.5,7.3,10.1,12.6,13.9c10.1,7.3,21.4,11.1,33.5,13.2c6.2,1.1,12.4,2.5,18.4,4.2     c3.8,1,7.4,2.6,11.1,4.2c6,2.6,9.5,7.8,7.1,17.2c-1.2,4.7-3.4,8.9-6.3,12.6c-3.2,4.2-6.7,8.1-10.1,12.2c-2.3,2.8-2.2,5.3,0,8.7     c1.3,2.1,3.5,2.6,7.1,1.1c2.2-0.9,4.4-2,6.2-3.5c4-3.5,7-8,8.3-13.2c1-4.1,1.7-8.3,2.5-12.4c1.6-8.2-0.5-15.8-4.7-22.8     c-4.4-7.3-10.8-12.2-19.5-13.5c-8.9-1.3-17.5-3.8-26.2-5.9c-11.2-2.7-20.6-8.2-28.2-16.6c-11.4-12.7-17.6-27.5-16.5-44.8     c0.3-5.5,1.1-11,1.6-16.6c0.7-7.1,1-14.2-0.3-21.3c-2.5-12.9-5-25.9-7.7-38.8c-0.9-4.4-2.2-8.7-3.8-12.9c-2.4-6.6-5.3-13-11.7-17     c-3.8-2.4-7-5.6-9.5-9.4C806.9,226.8,806.1,226.2,805.1,225.2L805.1,225.2z M782.7,456.2c1.5-3.5,1-6.7,1.2-9.8     c0.2-4.5-0.1-9.1,0.8-13.4c1.9-9.3,4.1-18.6,7-27.6c4.5-14.4,7.8-29.1,9.9-44c2.3-15.6,0.7-31.1-0.5-46.6     c-0.8-10.8-2.6-21.5-4.2-32.2c-1.2-8.1-2.7-16.1-5.5-23.5c-2.3-1.1-4.2-2.1-6.1-3c-3.8-1.7-6.8-0.3-7.7,3.8     c-0.4,1.8-0.3,3.7-0.2,5.5c0.2,3.2,0.7,6.3,0.6,9.5c-0.3,6.9-0.9,13.7-1.3,20.5c-0.7,10.8-1.3,21.6-1.9,32.4     c-0.2,2.9,0.3,5.5,1.5,8.4c5.8,13.7,7.7,27.9,4.7,42.6c-0.4,1.8-0.7,3.7-1.4,5.3c-5.1,11.6-12.3,21.4-23,28.5     c-6.2,4.1-12.6,7.6-19.9,9.2c-1,0.2-1.8,0.8-2.9,1.4c1.2,11.1,5.7,19.8,15.1,25.8C759.1,455.4,770.2,457.7,782.7,456.2     L782.7,456.2z M667.5,337.3c2.7,0.5,4.7,1.2,6.7,1.2c9.5,0.1,19-1,28.2-3.7c7.7-2.3,14.9-5.5,20.2-11.7c2.7-3.2,5.6-6.4,8-9.8     c1.3-1.9,2.3-4.2,2.8-6.4c3.4-14.1,7.5-28,8.2-42.7c0.2-5.2,5.9-10.3,11.1-10.7c4.2-0.3,7.5,1.4,8.7,5.3c1.1,3.5,2,7.2,1.9,10.8     c-0.9,19.8-1.9,39.6-3.2,59.4c-0.9,13.6-4.1,26.4-11.4,38.3c-4.5,7.4-10.3,12.5-18.3,15.4c-2.5,0.9-4.9,2-7.4,2.7     c-6.1,1.6-9.2,5.9-10.6,11.6c-1.4,5.4-1.5,11-0.6,16.5c1.8,10.4,4.7,20.6,9,30.3c5.2,11.6,13.3,19.6,26.1,22.1     c10.9,2.1,21.6,4.9,32.7,5.5c1.5,0.1,3-0.5,4.6-0.8c-0.2-2.5-0.3-4.6-0.6-6.7c-0.1-1-0.7-1.9-1.2-3.3c-2.6-0.1-5.2-0.5-7.8-0.3     c-9.9,0.5-18.6-2.7-27-7.5c-8-4.6-13.2-11.3-16-19.9c-4.1-12.3-1.3-23.4,6.2-33.5c2.8-3.8,6.2-7.2,9.3-10.8     c6.3-7.2,12.4-14.7,16-23.5c4.3-10.5,7.4-21.5,8-33c0.9-16.6,2.1-33.2,2.7-49.8c0.2-5.7,1.2-11.5-0.2-17.3     c-0.5-1.9,0-4.3,0.6-6.2c1.7-5.4,6.4-7.8,11.8-6.2c2.3,0.6,4.4,1.5,6.4,2.2c2.9,3.2,3.1,7,4,10.5c3.5,13.3,4.8,27,6.5,40.6     c0.9,7.3,1.9,14.7,2.4,22c0.5,8.7,1.2,17.5,0.4,26.1c-1.7,18.4-5.5,36.5-11.5,54.1c-3.3,9.7-6.2,19.8-6.8,30     c-0.8,13.2-1,26.4,1.3,39.5c1.4,8.3,4.1,15.8,9.4,22.3c4,4.9,8.1,9.7,12.1,14.6c10.2,12.4,23.4,17.3,39.1,16.8     c4.7-0.2,9.5-0.2,14.2-0.1c4.6,0.1,8.7,1.7,12.6,4.1c3.6,2.3,6.6,5.2,9.1,8.7c2.2,3,4.2,6.1,6.4,9.1c1.2,1.7,2.6,3.3,5.6,3.1     c0.2-1.5,0.7-3.1,0.4-4.4c-3.3-13.1-14-25.5-29.6-27c-8.4-0.8-16.8-1.9-25.2-2.8c-4.8-0.5-9.4-1.5-13.3-4.6     c-9.9-7.8-17.7-17.4-22.6-29.1c-3.1-7.3-4.8-15.1-5.8-23c-1.9-14.8-0.3-29.6,1.3-44.3c1.4-13.4,3.9-26.7,6.4-39.9     c4.2-22.4,6.8-44.9,7-67.7c0.1-9-0.7-17.9-1.5-26.9c-0.6-6.9-1.7-13.6-4.1-20.1c-2.9-7.9-5.9-15.8-9.1-23.6     c-2-4.8-2.5-9.7-1.3-14.7c0.8-3.4,2.2-6.4,5.8-7.4c0.8,0.5,1.5,0.7,1.7,1.1c2.7,5.7,7.2,9.7,12.2,13.3     c11,7.7,21.6,15.9,33.6,22.2c7.1,3.7,13.9,7.5,21.9,8.4c2.3,0.3,4.7,0.6,7,0.8c7.6,0.5,15.3-0.3,22.7,2.4     c1.2,0.4,2.6,0.5,3.9,0.4c7.4-0.6,14.8-1,21.9-3.1c4.3-1.3,8.4-3.1,12.7-4.5c4.8-1.6,9-4.2,13.1-7.2     c14.7-10.9,27.3-24.1,39.6-37.6c6.6-7.2,12.2-15.2,16.3-24.3c3-6.7,6.4-13.3,10.1-19.7c6.6-11.3,11.3-23.2,13.1-36.2     c0.5-3.9,0.9-7.9,1.3-11.8c0.8-7.2-0.1-14.2-2.5-21.1c-2.3-6.8-4.6-13.5-6.5-20.4c-0.9-3-1.3-6.2-1.2-9.3     c0.1-4.9,3.3-7.7,8.2-7.5c2.1,0.1,4.1,0.5,6.1,0.7c2.8-4.7,3-5.2,2.5-7.3c-0.6-2.4-1.9-4.3-4-5.7c-1.1-0.7-2.2-1.5-3.4-2.1     c-4.9-2.4-8.6-1.5-11.6,3.1c-2.3,3.6-3.6,7.6-4.3,11.8c-1.7,9.8-0.6,19.5,1.9,29c1.1,4.1,2.2,8.1,3.5,12.2     c4.6,14,3.2,27.6-2.5,41c-9.7,22.9-23,43.3-40,61.4c-1.1,1.2-2.1,2.4-3.1,3.6c-5.8,6.8-11.4,13.9-17.6,20.4     c-6,6.4-13.4,11.3-21.4,14.8c-7.9,3.5-16.2,6.4-24.7,8.3c-20.2,4.3-39.9,2.6-59-5.2c-10.1-4.1-18.1-10.9-24.3-19.7     c-3.6-5.1-6.1-11.1-8.7-16.8c-4.2-9.7-6.2-20.2-8.1-30.6c-1.5-8.6-3-17.3-3.1-25.9c0-8.9-0.3-17.9-0.1-26.8c0.1-5-0.1-10-0.4-15     c-0.6-11.5-3.9-22.3-8.5-32.8c-2.3-5.2-6.1-9.2-10.8-12.3c-5.4-3.6-11.4-5.4-17.4-7.5c-9.5-3.3-18.7-2.3-27.8,1.3     c-3.7,1.5-7.3,3-11,4.3c-12.8,4.5-21.3,13.6-26.1,26c-2.6,6.9-4.5,14.1-6.4,21.2c-0.8,3.2-2.2,6.5-0.6,10.1     c0.4,1-0.2,2.6-0.7,3.8c-3.2,7.6-4.6,15.7-7.3,23.4c-4.3,12.5-7.6,25.3-11.1,38c-2.6,9.4-5.6,18.7-8.9,27.9     c-2.3,6.4-5.2,12.7-8.2,18.9c-4.2,8.7-10.1,16.3-17.9,21.9c-12.8,9.2-25.3,19.1-39.6,26.2c-2.4,1.2-4.5,2.7-6.8,4.1     c-8.2,5.3-16.4,10.7-24.6,15.9c-8.6,5.4-15.9,12.3-21.5,20.7c-4,5.9-7.9,11.9-11.6,18c-2.5,4.1-4.7,8.3-6.7,12.6     c-2.9,6.3-4.6,13-3.6,20c0.6,4.2,1.7,8.3,2.5,12.4c1.9,10.9,12.1,14.5,19.8,14.8c1.4,0.1,2.8-1,4-1.5c-0.7-5.4-0.6-5.5-3-7.3     c-1.5-1.1-3-2.1-4.6-3.1c-4.6-2.9-7.2-7.2-7.4-12.4c-0.4-8.8,0.6-17.4,5.2-25.3c3.5-6,7.4-11.6,12.4-16.4     c9.2-9.1,18.5-18.1,28.2-26.6c5.9-5.2,12.6-9.7,19.3-13.8c7.4-4.5,15.4-8.2,23.1-12.2c14.4-7.7,27-17.3,36-31.4     c3.4-5.3,7.8-9.9,11.9-14.8c0.7-0.9,1.8-0.8,2.8,0.4c-1.2,3.2-3.7,5.5-6,8.1c-2.5,2.9-4.2,5.9-4.5,9.8     c-0.8,10.3-4.1,20.2-6.4,30.2c-1.7,7.7-4.2,15.3-6.8,22.7c-1.3,3.7-3.1,7.4-5.5,10.5c-8.4,11.2-17,22.2-25.7,33.2     c-1.1,1.4-2.7,2.5-4.1,3.7c-5.2,4.6-11.2,7.8-17.2,11.2c-6.6,3.8-11.4,9.1-14.4,16.3c-8.4,20-9.4,40.4-3.5,61.2     c3.1,10.9,10.2,18.2,20.8,22.1c2.5,0.9,5,1.7,7.5,2.5c6.4,1.9,12.9,2.7,19.6,2.2c8.2-0.6,15.5-3.3,21.1-9.5     c1.8-1.9,3.7-3.9,2.7-7.1c-4.4-2.8-9.4-2.8-14.4-2c-8.2,1.4-16.3,0.7-24.4-0.2c-5-0.6-9.2-2.7-12.6-6c-5.3-5.2-8.3-11.6-8.3-19.1     c0-5.5,0.7-11,1-16.6c0.5-9.7,4-18.5,8.4-27c2.2-4.3,5.2-7.8,9-10.9c7.6-6.2,15.1-12.4,22.2-19.1c13-12,22.2-26.8,30.9-42     c2.9-5,5.1-10.5,6.8-16c3.1-10.1,5.9-20.3,8-30.6c1.4-6.9,4.6-12.9,7.2-19.1c0.8-1.9,2.4-3.5,3.9-4.9c3.9-3.7,8.3-5.1,13.8-3.6     c3.8,1,6.5,3.3,9.4,5.6c3.4,2.7,4.7,6.2,4.5,10.4c-0.5,9.5-1.5,19-5.1,27.9c-3.2,7.8-7.3,15.2-12.2,22.2     c-4.2,6-9.6,10.5-16.5,13.1c-2,0.8-4,1.3-5.9,2.3c-4.8,2.4-9.8,3.4-15.3,2.2C671.7,329.3,669,332.2,667.5,337.3L667.5,337.3z      M819.5,313.4c-0.3,1.7-0.5,2.7-0.6,3.8c-0.5,9.8-0.7,19.5-1.6,29.3c-0.8,8.7-2.1,17.3-3.6,25.9c-4.3,24.2-9.1,48.3-9.9,72.9     c-0.1,3.2-0.1,6.3-0.1,9.5c0,0.8,0.4,1.5,0.6,2.4c2.3,1.9,5.3,2.2,8.1,2.9c8,2.1,14.5,6.6,18.9,13.5c6.2,9.8,9.6,20.5,7.1,32.3     c-0.7,3.6-1.1,7.2-1.6,10.9c1.4,1.9,3.6,1.9,5.7,2.1c8.4,1,16.8,2.1,25.2,2.9c16.6,1.6,26.7,11.4,32.6,26.3c0.8,2.1,1,4.7,0.9,7     c-0.1,3.3-3.2,5.4-6.1,4.2c-3.1-1.3-6.1-2.9-9.7-2.5c-1.4,0.1-2.3-1.2-2.3-2.7c0-1.3,0.3-2.6,0.5-4.3c-0.9-0.3-1.8-0.6-2.8-0.8     c-3.5-0.8-3.5-0.8-3.6-4.6c0-0.5-0.1-1-0.2-1.8c-2.2-0.3-4.4-0.6-6.9-0.9c-0.4-2.2-0.8-4.2-1.3-6.7c-3.8-0.3-7.4-0.7-11.1-1     c-1-0.1-2.1,0.1-3.2,0.1c-8.2,0.7-16.3,0.8-24.3-2.4c-1.1,1.4-2.3,2.6-3,3.9c-2.3,4-5.8,5.4-10,4.5c-2.8-0.6-5.5-1.4-8.4-1.5     c-0.8,0-1.5-1.3-2.6-2.2c0.9-2.3,1.8-4.4,2.6-6.4c-0.3-0.6-0.5-1.2-0.9-1.4c-0.7-0.3-1.6-0.2-2.3-0.6c-2.6-1.4-3.1-3.9-1-5.7     c0.8-0.7,1.8-1.1,2.7-1.7c0.6-0.4,1.2-0.8,2.1-1.4c-1.4-1.8-2.7-3.5-4-5.1c-2.7-3.3-5.4-6.5-8.1-9.7     c-6.4-7.6-10.8-16.2-12.1-26.2c-0.1-0.5-0.5-0.9-1-1.8c-1.2-0.2-2.7-0.4-4.3-0.5c-11.3-1.2-22.3-3.7-33.4-6.3     c-1.5-0.4-3-0.9-4.6-1.3c-10.9-3-18.5-10-23.1-20.1c-3.7-8.2-7.2-16.4-8.5-25.5c-0.1-1-0.6-2-1-3.5c-3.9-1.5-8-3.4-12.2-4.7     c-5.7-1.9-10.4-5.1-14.2-9.6c-2.7-3.2-5.2-6.6-7.6-10.1c-4.9-7-1.1-17.1,9.4-18.7c2-0.3,3.7,0.3,4.8,2.1c0.5,0.8,1,1.6,1.6,2.5     c1.9-0.8,3.6-1.6,5.1-2.2c2.6,2.9,2.6,2.9,3.7,6.8c1.4,1,2.4-0.4,3.6-0.7c2.7-0.8,4,0.1,4.2,2.9c0.1,1-0.1,2.1-0.1,3.2     c0,0.8,0.2,1.5,0.5,2.9c1-0.4,2.3-0.5,2.6-1.1c2.8-5.8,7.7-8.4,13.5-10c5.9-1.6,11.4-4.1,15.9-8.5c1.7-1.6,3.2-3.5,4.6-5.3     c0.8-1,1.2-2.4,2-3.4c8.9-12.2,6.2-25.1,1.9-37.8c-2.2-6.4-7.4-11.3-11.9-17c-2.9,3.6-5.4,6.6-7.8,9.6c-1.3,1.6-2.7,3.2-4.1,4.8     c-8.7,10-20.6,13.4-32.9,15.6c-8.8,1.6-17.8,1.9-27,0.2c-4.2,4.9-8.5,9.9-12.7,14.9c-6.4,7.5-14.6,13-21.7,19.6     c-2.1,2-4.3,3.9-6.3,5.7c-0.2,4.8,1.3,8.7,4.1,12c4.2,5,8.5,10.1,13.1,14.8c3.9,4,8.8,6.7,14.6,8.3c1.5-1.4,3.2-2.9,5.2-4.6     c1,0.6,2.1,0.9,2.6,1.7c1.2,2.2,2.2,4.6,3.4,7.4c2.2-2.1,4-3.8,6.2-5.9c2,1.6,3.8,3,5.7,4.6c0.8-0.9,1.6-1.9,2.6-2.8     c3.1-2.9,4.1-2.6,6.2,1.5c0.8,1.6,1.9,3.1,2.9,4.7c4.7,7.4,1.8,15.6-6.7,18c-2.7,0.8-5.8,1.1-8.6,0.6     c-25.1-4.1-47.1-13.5-61.5-36c-0.5-0.8-1.3-1.6-2.3-2.8c-0.8,1.6-1.5,2.7-1.8,3.9c-2,9.1-2.9,18.3-2.2,27.6     c0.8,10.3,6.3,16.8,16.3,19.9c6.7-5.2,7.8-5.3,12.3,0.9c0.5-0.1,1.1-0.1,1.3-0.5c3.2-5,4.8-5.3,9.1-1.8c0.6,0.5,0.9,1.3,1.6,2.3     c1.8-1.5,3-2.8,4.5-3.7c1.3-0.8,2.9-1,4.8-1.5c2.1,4.5,5.9,6.4,10.1,7.7c0.7,4.4-0.9,7.5-3.3,10.5c-5.9,7.2-13.7,10.6-22.6,11.7     c-12.7,1.5-24.9-1.3-36-7c-8.4-4.3-14.4-11.5-17.1-20.9c-5.8-20.2-5.1-40.1,2-59.9c2.3-6.3,5.5-11.9,10-17     c-2.6-8.9-2.4-17.8-2-26.8c0.3-6.3,2.5-11.9,6.5-16.7c1.8-2.2,4-4.2,6.2-6c6.6-5.4,14.1-9.3,22.5-11.2c6.9-1.5,13.6-1.6,20.1,1.6     c0.7,0.3,1.5,0.5,2.2,0.7c0.2,0.1,0.5-0.1,1.2-0.2c2.1-1.5,2.4-4.2,3.2-6.6c6.4-19,10.5-37.1,10.5-45.9c-1,0.7-1.9,1.1-2.4,1.8     c-4.8,7.2-11.1,12.6-18.3,17.2c-11.3,7.3-23.2,13.6-35.2,19.7c-7.6,3.9-14.4,8.8-20.7,14.6c-8.9,8.2-17.9,16.5-26.5,25     c-4.1,4.1-7.5,8.8-11,13.4c-5.7,7.5-6.9,16.4-7.3,25.5c0,0.7,0.4,1.5,0.7,2.8c1.8,0.4,3.8,0.8,5.9,1.2c0.6,1.4,1.2,2.8,2,4.5h6     c1.7,2.4-0.3,6.2,3.4,7.5c0.4,0.1,0.8,1.5,0.7,2.1c-1.3,8.1-5.4,12.9-12.9,11.3c-3.1-0.7-6.2-1.4-9.1-2.6     c-5.7-2.4-9.5-6.6-11-12.7c-0.8-3.1-1.2-6.2-2-9.3c-2.7-10-0.6-19.5,3.7-28.5c5.9-12.1,13.3-23.4,21.3-34.3     c4.9-6.6,11.2-11.9,18.3-16.2c14.2-8.7,28.4-17.3,42.4-26.2c6.7-4.2,13.1-9,19.5-13.5c2.6-1.8,5.1-3.8,7.7-5.6     c9.2-6.7,16.1-15.2,20.4-25.7c2.8-6.8,6.2-13.4,8.7-20.4c2.8-7.9,5-16.1,7.3-24.3c3.2-11.7,6-23.5,10.6-34.8     c1.2-2.9,1.7-6.1,2.5-9.2c0.7-2.5,1.3-5.2,2.4-7.5c1.4-3,1.6-6,2-9.2c0.7-5.5,1.8-10.9,3-16.3c0.9-4.1,2.4-8.1,3.6-12.2     c2.6-9.1,7.1-17,14-23.5c3.5-3.3,7.4-6,11.8-7.8c5.6-2.2,11.3-4.4,16.9-6.7c6-2.4,12.3-3.8,18.6-2.8c11.3,1.8,22.1,5.1,31.1,12.7     c3.9,3.3,6.7,7.4,8.6,12.2c4.2,10.6,7.5,21.4,7.9,32.9c0.3,6.9-0.3,13.8,0.6,20.6c0.7,6.1-0.5,12.1-0.3,18.1     c0.4,8.2,1.1,16.3,2.5,24.4c1.9,11.2,4.2,22.3,8.4,32.9c5.6,14.2,13.8,26.1,27.6,33.5c6.1,3.3,12.6,5.4,19.3,6.9     c18.5,4.1,36.6,2.7,54.5-3.8c8.5-3.1,16.8-6.3,23.9-12.1c3.5-2.8,7.1-5.5,10.1-8.8c5.7-6.2,11.1-12.8,16.6-19.2     c4.6-5.4,9.4-10.7,13.9-16.2c11-13.7,19.8-28.7,26.6-44.8c1.5-3.6,2.7-7.4,3.9-11.2c2.7-9.2,1.9-18.3-0.7-27.4     c-1.5-5.3-3.1-10.7-4.5-16c-2.6-10.1-3.9-20.3-1.2-30.5c0.9-3.5,2.1-7.1,3.8-10.3c3.5-6.4,9.6-8.3,16.2-5.2     c4.2,1.9,7.8,4.6,9.1,9.3c0.4,1.5,0.8,3.2,0.5,4.6c-0.6,3.1-1.6,6,0,9.2c0.7,1.3-0.6,3.1-2.2,3.8c-1.5,0.7-3.9,0-4.9-1.6     c-0.9-1.4-0.5-3.9-3.7-3.7c-0.1,0.9-0.4,1.8-0.4,2.8c-0.1,2.4-1,4-3.5,4.5c-1.3,0.2-1.7,1.3-1.4,2.4c0.2,0.7,0.8,1.6,1.4,1.7     c2,0.4,4.5-0.4,5.3,2.3c0.8,2.9,0.7,5.8-1.8,8c-0.4,0.3-0.5,0.9-0.9,1.8c0.8,2.7,1.7,5.7,2.7,8.7c2.3,7.4,3.2,14.8,2.5,22.6     c-1.5,17.7-6.6,34.1-15.6,49.4c-3.7,6.4-7,13-10,19.8c-2.7,6.1-6.2,11.6-10.3,16.9c-11,14.2-23.7,27-37.4,38.6     c-1.8,1.5-3.6,3.1-5.4,4.6c-5.3,4.4-11,8-17.8,10.1c-6,1.9-11.6,5-18,5.7c-5.5,0.6-11,1.3-16.5,1.9c-1,0.1-2.2,0.1-3.1-0.2     c-8.4-3.2-17.2-2-25.8-2.7s-17.2-2.1-24.8-7.1c-7-4.7-14.4-8.7-21.7-13c-0.3-0.2-0.9,0.1-1.9,0.1c0.4,1.8,0.5,3.6,1.1,5.3     c5.3,16.7,8.2,33.9,11,51c1.3,7.8,0.8,15.8,0,23.7c-0.7,6.6-1.5,13.2-1.3,19.7c0.7,21.5,15.2,42.8,36.5,50.2     c8.4,2.9,17.4,4.4,26.1,6.5c1.5,0.4,3.1,0.7,4.7,0.8c15.4,1.5,28.5,17.1,27.9,35.1c-0.2,6.9-1.3,13.7-3.7,20.2     c-2.7,7.4-7.1,13.5-14.5,17c-9.2,4.2-13,0.7-14.5-8.8c-0.4-2.8,0.2-5.8,0.7-8.6c0.3-1.4,1.4-3.4,2.5-3.8c2.9-1,2.9-3,3.2-5.4     c0.1-1.1,1.3-2.5,2.3-2.9c1.8-0.8,3.2-1.3,3.3-3.7c0.2-3.5,2.8-4.8,5.8-5.1c1.8-8,0.8-10.4-5.8-13.6c-1.9-0.9-3.9-1.6-5.9-2.3     c-10-3.5-20.3-5.7-30.6-7.8c-11.5-2.3-22-7.3-30.9-15.2c-3.4-3-6.3-6.5-8.2-10.6c-2-4.4-4.7-8.3-7.6-12c-5.6-7.1-8.3-15.3-9.5-24     c-1.4-10.7-2.7-21.5-1.6-32.4c0.2-2.3-0.3-4.7-0.8-7C821.5,315.3,820.5,314.6,819.5,313.4L819.5,313.4z"/>
			<g id="Group-5" transform="translate(493.541667, 0.812743)">
				<g id="Clip-4">
				</g>
				<path id="Fill-3" d="M542.1,19.6c-1.2-0.5-2.5-0.7-3-1.4c-2.3-3.5-4.4-7-6.4-10.6c-0.3-0.6-0.2-1.6-0.2-2.3c0-2,1.5-3.5,3.5-3.5      c2.3,0,4.5,0.8,7-0.1c2.8-1,5.4,1,5.2,3.9C547.9,10.8,546.7,15.9,542.1,19.6"/>
			</g>
			<path id="Fill-6" class="st0" d="M773.6,108.1c-0.3,0.6-0.6,1.2-0.6,1.8c0,0.2,0.7,0.5,1.1,0.7c0.4-0.6,0.7-1.1,1.1-1.7     C774.7,108.7,774.3,108.5,773.6,108.1 M748.9,110.1c0.5-0.7,1.3-1.3,1.2-1.8c-0.1-0.6-0.8-1.4-1.4-1.6c-0.9-0.4-2.2,1.1-1.7,2     C747.4,109.2,748.1,109.5,748.9,110.1 M667.5,337.3c1.6-5,4.3-7.9,6.6-11.3c5.5,1.3,10.5,0.3,15.3-2.2c1.9-0.9,3.9-1.5,5.9-2.3     c6.8-2.7,12.3-7.2,16.5-13.1c4.9-6.9,9-14.3,12.2-22.2c3.6-8.9,4.7-18.4,5.1-27.9c0.2-4.2-1.2-7.7-4.5-10.4     c-2.9-2.3-5.6-4.6-9.4-5.6c-5.5-1.5-9.9-0.1-13.8,3.6c-1.5,1.4-3.1,3-3.9,4.9c-2.6,6.3-5.8,12.2-7.2,19.1     c-2.1,10.3-4.9,20.5-8,30.6c-1.7,5.5-3.9,11-6.8,16c-8.7,15.1-17.9,30-30.9,42c-7.2,6.6-14.7,12.9-22.2,19.1     c-3.8,3.1-6.8,6.7-9,10.9c-4.4,8.5-7.8,17.3-8.4,27c-0.3,5.5-1.1,11.1-1,16.6c0,7.5,3,13.9,8.3,19.1c3.4,3.3,7.6,5.4,12.6,6     c8.2,1,16.3,1.6,24.4,0.2c5-0.8,9.9-0.8,14.4,2c1,3.2-0.9,5.2-2.7,7.1c-5.7,6.2-13,8.9-21.1,9.5c-6.7,0.5-13.2-0.3-19.6-2.2     c-2.5-0.8-5-1.6-7.5-2.5c-10.6-3.9-17.7-11.2-20.8-22.1c-5.9-20.8-5-41.2,3.5-61.2c3-7.1,7.8-12.5,14.4-16.3     c5.9-3.4,12-6.7,17.2-11.3c1.4-1.2,3-2.3,4.1-3.7c8.6-11,17.3-22,25.7-33.2c2.3-3.1,4.2-6.8,5.5-10.5c2.6-7.5,5.1-15,6.8-22.7     c2.2-10,5.6-19.9,6.4-30.2c0.3-3.9,2.1-7,4.5-9.8c2.2-2.6,4.7-4.9,6-8.1c-1-1.2-2.1-1.3-2.8-0.4c-4,4.9-8.5,9.5-11.9,14.8     c-8.9,14.1-21.6,23.7-36,31.4c-7.7,4.1-15.6,7.7-23.1,12.2c-6.7,4.1-13.4,8.6-19.3,13.8c-9.7,8.5-19,17.6-28.2,26.6     c-4.9,4.8-8.9,10.5-12.4,16.4c-4.6,7.8-5.6,16.5-5.2,25.3c0.2,5.2,2.8,9.6,7.4,12.4c1.6,1,3.1,2,4.6,3.1c2.4,1.9,2.4,1.9,3,7.3     c-1.3,0.5-2.7,1.5-4,1.5c-7.7-0.3-17.9-3.9-19.8-14.8c-0.7-4.2-1.9-8.2-2.5-12.4c-1-7,0.8-13.7,3.6-20c2-4.3,4.2-8.5,6.7-12.6     c3.7-6.1,7.6-12.1,11.6-18c5.7-8.5,12.9-15.3,21.5-20.7c8.3-5.2,16.4-10.6,24.6-15.9c2.2-1.4,4.4-2.9,6.8-4.1     c14.3-7.1,26.7-17,39.6-26.2c7.8-5.6,13.7-13.2,17.9-21.9c3-6.2,5.9-12.4,8.2-18.9c3.3-9.2,6.4-18.5,8.9-27.9     c3.5-12.7,6.8-25.5,11.1-38c2.6-7.7,4.1-15.8,7.3-23.4c0.5-1.2,1.1-2.8,0.7-3.8c-1.5-3.6-0.2-6.9,0.6-10.1     c1.8-7.1,3.7-14.3,6.4-21.2c4.8-12.4,13.3-21.4,26.1-26c3.7-1.3,7.4-2.9,11-4.3c9.1-3.7,18.2-4.7,27.8-1.3c6,2.1,12,3.9,17.4,7.5     c4.7,3.2,8.5,7.1,10.8,12.3c4.6,10.5,7.9,21.3,8.5,32.8c0.2,5,0.5,10,0.4,15c-0.2,8.9,0.1,17.9,0.1,26.8c0,8.6,1.5,17.4,3.1,25.9     c1.9,10.4,3.8,20.8,8.1,30.6c2.5,5.8,5.1,11.7,8.7,16.8c6.1,8.8,14.2,15.6,24.3,19.7c19.1,7.8,38.8,9.5,59,5.2     c8.6-1.8,16.8-4.8,24.7-8.3s15.3-8.5,21.4-14.8c6.2-6.5,11.7-13.6,17.6-20.4c1-1.2,2-2.4,3.1-3.6c16.9-18.1,30.3-38.5,40-61.4     c5.7-13.4,7-27,2.5-41c-1.3-4-2.5-8.1-3.5-12.2c-2.5-9.5-3.6-19.2-1.9-29c0.7-4.2,2-8.2,4.3-11.8c2.9-4.6,6.7-5.5,11.6-3.1     c1.2,0.6,2.3,1.3,3.4,2.1c2.1,1.4,3.4,3.3,4,5.7c0.5,2.1,0.3,2.6-2.5,7.3c-2-0.2-4-0.7-6.1-0.7c-4.8-0.2-8.1,2.7-8.2,7.5     c0,3.1,0.4,6.4,1.2,9.3c2,6.8,4.3,13.6,6.5,20.4c2.3,6.9,3.2,13.9,2.5,21.1c-0.4,3.9-0.7,7.9-1.3,11.8     c-1.8,13-6.6,24.9-13.1,36.2c-3.7,6.4-7.1,13-10.1,19.7c-4.1,9-9.6,17-16.3,24.3c-12.3,13.4-24.8,26.7-39.6,37.6     c-4.1,3-8.3,5.6-13.1,7.2c-4.3,1.4-8.4,3.2-12.7,4.5c-7.1,2.1-14.5,2.5-21.9,3.1c-1.3,0.1-2.7,0-3.9-0.4     c-7.4-2.7-15.1-1.9-22.7-2.4c-2.3-0.2-4.7-0.5-7-0.8c-8-1-14.8-4.7-21.9-8.4c-12-6.3-22.6-14.5-33.6-22.2     c-5-3.5-9.5-7.5-12.2-13.3c-0.2-0.4-0.8-0.6-1.7-1.1c-3.5,1-5,4-5.8,7.4c-1.2,5-0.6,9.9,1.3,14.7c3.2,7.8,6.2,15.7,9.1,23.6     c2.4,6.5,3.6,13.2,4.1,20.1c0.7,8.9,1.6,17.8,1.5,26.9c-0.2,22.8-2.8,45.3-7,67.7c-2.5,13.2-4.9,26.5-6.4,39.9     c-1.5,14.7-3.2,29.4-1.3,44.3c1,7.9,2.7,15.7,5.8,23c4.9,11.7,12.7,21.3,22.6,29.1c3.9,3.1,8.5,4.1,13.3,4.6     c8.4,0.9,16.8,2,25.2,2.8c15.6,1.5,26.3,13.9,29.6,27c0.3,1.3-0.2,2.9-0.4,4.4c-3,0.2-4.4-1.4-5.6-3.1c-2.2-3-4.2-6.1-6.4-9.1     c-2.5-3.5-5.5-6.4-9.1-8.7c-3.9-2.4-8-4.1-12.6-4.1c-4.7-0.1-9.5-0.1-14.2,0.1c-15.7,0.5-29-4.4-39.1-16.8     c-4-4.9-8.1-9.7-12.1-14.6c-5.3-6.5-8-14.1-9.4-22.3c-2.3-13.1-2.1-26.4-1.3-39.5c0.6-10.3,3.5-20.3,6.8-30     c6-17.6,9.8-35.7,11.5-54.1c0.8-8.6,0.1-17.4-0.4-26.1c-0.4-7.4-1.5-14.7-2.4-22c-1.7-13.6-3-27.3-6.5-40.6     c-0.9-3.5-1.1-7.4-4-10.5c-1.9-0.7-4.1-1.6-6.4-2.2c-5.4-1.6-10.1,0.8-11.8,6.2c-0.6,2-1.1,4.3-0.6,6.2     c1.4,5.8,0.4,11.6,0.2,17.3c-0.7,16.6-1.8,33.2-2.8,49.8c-0.6,11.5-3.7,22.5-8,33c-3.6,8.8-9.7,16.3-16,23.5     c-3.1,3.6-6.5,7-9.3,10.8c-7.5,10.1-10.3,21.3-6.2,33.5c2.8,8.6,8,15.3,16,19.9c8.4,4.8,17.2,8,27,7.5c2.6-0.1,5.2,0.2,7.8,0.3     c0.5,1.4,1,2.3,1.2,3.3c0.3,2.1,0.4,4.2,0.6,6.7c-1.7,0.3-3.2,0.9-4.6,0.8c-11.1-0.6-21.9-3.4-32.7-5.5     c-12.7-2.5-20.9-10.5-26.1-22.1c-4.3-9.7-7.2-19.8-9-30.3c-1-5.5-0.8-11.1,0.6-16.5c1.5-5.7,4.5-10,10.6-11.6     c2.5-0.7,5-1.8,7.4-2.7c7.9-2.9,13.7-8,18.3-15.4c7.3-11.9,10.5-24.8,11.4-38.3c1.3-19.8,2.4-39.6,3.2-59.4     c0.2-3.6-0.8-7.3-1.9-10.8c-1.2-4-4.5-5.7-8.7-5.3c-5.2,0.4-10.8,5.5-11.1,10.7c-0.7,14.6-4.7,28.6-8.2,42.7     c-0.5,2.3-1.5,4.6-2.8,6.4c-2.4,3.4-5.3,6.6-8,9.8c-5.4,6.3-12.5,9.5-20.2,11.7c-9.2,2.7-18.6,3.8-28.2,3.7     C672.2,338.4,670.2,337.8,667.5,337.3"/>
			<path id="Fill-8" class="st0" d="M805.1,225.2c1,1,1.9,1.6,2.4,2.4c2.5,3.8,5.7,7,9.5,9.4c6.4,4,9.3,10.4,11.7,17     c1.5,4.2,2.9,8.5,3.8,12.9c2.7,12.9,5.2,25.9,7.7,38.8c1.4,7.1,1,14.2,0.3,21.3c-0.5,5.5-1.2,11-1.6,16.6     c-1.1,17.3,5.1,32.1,16.5,44.8c7.5,8.4,16.9,13.9,28.2,16.6c8.7,2.1,17.3,4.6,26.2,5.9c8.7,1.3,15.1,6.3,19.5,13.5     c4.2,6.9,6.2,14.5,4.7,22.8c-0.8,4.1-1.5,8.3-2.5,12.4c-1.3,5.2-4.3,9.7-8.3,13.2c-1.7,1.5-4,2.6-6.2,3.5c-3.6,1.4-5.8,1-7.1-1.1     c-2.2-3.4-2.2-5.9,0-8.7c3.3-4.1,6.8-8.1,10.1-12.2c2.9-3.8,5.1-7.9,6.3-12.6c2.4-9.4-1.1-14.6-7.1-17.2     c-3.6-1.6-7.3-3.2-11.1-4.2c-6.1-1.7-12.2-3.1-18.4-4.2c-12.1-2.1-23.4-5.9-33.5-13.2c-5.3-3.8-9.3-8.5-12.6-13.9     c-2.6-4.3-5-8.7-7.9-12.7c-4.9-6.6-7.1-14.2-8.4-22c-1.1-6.5-1.2-13.1-1.5-19.7c-0.2-3.7,0-7.4,0.4-11.1     c0.7-6.3-0.3-12.1-4.8-16.9c-1.6-1.7-2.1-3.5-2.3-5.7c-0.5-6.3-1.2-12.6-1.8-18.9c-0.5-5.5-1.8-10.9-3.7-16.1     c-3.2-8.9-6.5-17.8-9.6-26.8C802.3,234.5,802,229.9,805.1,225.2"/>
			<path id="Fill-10" class="st0" d="M620.2,384.9c5,11.6,13,20.1,22.4,27.5c2.2,1.8,4.8,3.2,7.4,4.4c3.1,1.5,6.4,2.4,9.5,3.8     c5.9,2.7,12,3.6,18.5,2.2c2.2-0.5,4.7-0.4,7,0c4.4,0.7,6.4,4.9,4.5,9c-1.8,3.9-5,6.2-9.3,6.1c-3.4-0.1-6.8-0.7-10.1-1.3     c-17.2-3.3-32.4-10.6-45-23.1c-3.8-3.7-6.9-7.9-9-12.8c-1.8-4.2-1.9-8.1,1.1-11.8C618.1,387.7,619,386.5,620.2,384.9"/>
			<path id="Fill-12" class="st0" d="M734.1,417.6c0.3-4.7,1.7-8.9,4-12.7c0.7-1.2,2.4-1.9,3.8-2.4c5.2-1.6,9.3-4.7,13-8.6     c3.7-4,6.4-8.4,7-13.9c0.5-4.5,2.3-8.5,3.9-12.7c3.3-8.3,5.6-17,8.5-25.9c0.5,0.6,1.3,1.1,1.6,1.9c4.7,12,4.5,24.3,1.9,36.6     c-0.4,2-1.1,4.1-2,6c-5.9,11.2-13.5,20.8-25,26.7c-4.5,2.3-8.8,4.8-14,5.2C736,417.9,735.3,417.7,734.1,417.6"/>
			<path id="Fill-14" class="st0" d="M614.2,365.6c-2.7,2.5-5.7,4.1-9.3,5.5c-0.6-1.4-1.4-2.5-1.5-3.6c-0.9-7.6-1.6-15.2-0.3-22.8     c0.8-4.6,2.2-8.7,5.2-12.2c8.3-9.6,18.8-15.2,31.3-16.8c5.7-0.7,11,0.5,15.8,4.2c-1,3.8-3.7,6.3-6,9.5c-1.5-0.1-3-0.3-4.6-0.4     c-4.6-0.4-8.9,0.4-12.8,3c-2.4,1.6-5,2.9-7.6,4.2c-5.9,3-9.1,7.9-9.5,14.4C614.6,355.7,614.4,360.7,614.2,365.6"/>
			<path id="Fill-16" class="st0" d="M717.6,291.3c-10.9-12.1-14.1-25.6-13.8-40.4c0.1-3.8,1.6-5,5.3-5.6c3.3-0.5,6.2,0.8,9,2.5     c5.4,3.4,9,7.5,7.8,14.8c-1.3,7.8-2.2,15.7-5.3,23.1C720,287.3,718.9,288.8,717.6,291.3"/>
			<path id="Fill-18" class="st0" d="M806.4,473.6c-1-3.4-2.2-6.8-1.4-11.1c5.8-0.1,10.8,2,15.3,5.2c5.8,4.1,10,9.4,12.2,16.1     c1.4,4.2,2.6,8.6,3.3,13c1,6.1-1.2,11.9-2.3,18.4c-6.2-2.8-9.7-7.2-12.8-11.8c0.9-2.7,1.8-5.1,2.5-7.6c1.6-5.8,0.8-11.1-4.5-14.7     C814.9,478.5,811,476.4,806.4,473.6"/>
			<path id="Fill-20" class="st0" d="M708.8,398.5c-0.3,4.8-0.5,9.9-0.8,15.5c-4.4-1.5-8.4-2.7-12.3-4.3c-2.1-0.9-4.2-2.2-6-3.7     c-4.9-3.7-8.2-8.8-11.7-13.8c-2.2-3.2-1.8-6.4,0.7-9.4c1.6-2,3.2-2.5,5.5-1.3C692.7,386.2,701.8,389.9,708.8,398.5"/>
			<path id="Fill-22" class="st0" d="M758.8,312.7c-0.7,7.5-1.5,15.6-2.3,23.8c0,0.4-0.7,0.7-1.3,1.3c-0.7-2.8-1.4-5.5-2.2-8.1     c-1.7-6.3-6.1-11-9.7-16.2c-1.9-2.8-3.9-5.6-5.9-8.5c1.1-4.2,2.1-8.2,3.1-12.1c2.5-0.7,3.1,1.1,3.8,2.4     C748,301.5,753.1,306.9,758.8,312.7"/>
			<path id="Fill-24" class="st0" d="M826.1,531.2c-1.2,1.5-1.9,3-3,3.9c-2.9,2.2-6.9,1.4-8.8-1.6c-1.9-3-2.4-6.2-1.5-10.2     c1.1,0.3,2,0.5,2.7,0.9C818.8,526.3,822,528.5,826.1,531.2"/>
			<path id="Fill-26" class="st0" d="M1034.1,89.2c-0.5-0.5-1.1-0.8-1-1c0.1-0.6,0.5-1,0.8-1.6c0.2,0.2,0.5,0.3,0.5,0.5     C1034.4,87.7,1034.3,88.4,1034.1,89.2"/>
			<path id="Fill-28" class="st0" d="M1032.3,74c-0.5,0.1-1,0.4-1.4,0.3c-0.3-0.1-0.4-0.7-0.6-1.1c0.4-0.1,0.9-0.5,1.2-0.3     C1031.9,73.1,1032,73.6,1032.3,74"/>
			<polygon id="Fill-30" class="st0" points="553.7,388.2 553.8,388.8 553.4,388.8    "/>
			<path id="Fill-32" d="M748.9,110.1c-0.8-0.6-1.6-0.9-1.9-1.5c-0.5-0.8,0.9-2.3,1.7-2c0.6,0.3,1.3,1,1.4,1.6     C750.2,108.7,749.4,109.4,748.9,110.1"/>
			<path id="Fill-34" d="M773.6,108.1c0.7,0.4,1.1,0.6,1.5,0.9c-0.4,0.6-0.7,1.1-1.1,1.7c-0.4-0.2-1.1-0.5-1.1-0.7     C773,109.3,773.3,108.7,773.6,108.1"/>
		</g>
	</g>
</g>
</svg>